<svg xmlns="http://www.w3.org/2000/svg" xmlns:xlink="http://www.w3.org/1999/xlink" width="1920" height="4095.994" version="1.1" viewBox="0 0 1920 4095.994" xml:space="preserve"><desc>Created with Fabric.js 4.6.0</desc><g id="LljMSXyBsTpRdEj6PPsMA"><path style="stroke:#5bf959;stroke-width:0;stroke-dasharray:none;stroke-linecap:butt;stroke-dashoffset:0;stroke-linejoin:miter;stroke-miterlimit:4;fill:#00a1b3;fill-rule:nonzero;opacity:1" stroke-linecap="round" d="M -960 -540 L 960 -540 L 960 540 L -960 540 z" transform="matrix(1 0 0 3.79 960 2047.04) translate(0, 0)" vector-effect="non-scaling-stroke"/></g><g id="Nr5ZQ0pc0VSTU0guQnNxX" transform="matrix(-0.24 -0.24 3.39 -3.39 415.99 466.7)"><linearGradient id="SVGID_0" x1="0" x2="269.285" y1="134.642" y2="134.642" gradientTransform="matrix(1 0 0 1 -134.64 -134.64)" gradientUnits="userSpaceOnUse"><stop offset="0%" style="stop-color:#000;stop-opacity:0"/><stop offset="50%" style="stop-color:#000;stop-opacity:.2"/><stop offset="100%" style="stop-color:#000;stop-opacity:1"/></linearGradient><path style="stroke:#13deb6;stroke-width:0;stroke-dasharray:none;stroke-linecap:butt;stroke-dashoffset:0;stroke-linejoin:miter;stroke-miterlimit:4;fill:url(#SVGID_0);fill-rule:nonzero;opacity:1" stroke-linecap="round" d="M -134.64236 -134.64236 L 134.64235000000002 -134.64236 L 134.64235000000002 134.64235000000002 L -134.64236 134.64235000000002 z" transform="translate(0, 0)" vector-effect="non-scaling-stroke"/></g><g id="yt736gLoXNnMj-hSHNtyL"><path style="stroke:none;stroke-width:1;stroke-dasharray:none;stroke-linecap:butt;stroke-dashoffset:0;stroke-linejoin:miter;stroke-miterlimit:4;fill:#edf34d;fill-rule:nonzero;opacity:1" stroke-linecap="round" d="M 0 0 L 80 80 L 0 80 L 0 0 z" transform="matrix(0 10.78 -11.18 0 447.33 431.15) translate(-40, -40)" vector-effect="non-scaling-stroke"/></g><g id="CNGgcbcznuMpT-exWJu6L" transform="matrix(0.22 -0.26 7.93 6.65 913.9 1176.79)"><linearGradient id="SVGID_1" x1="0" x2="269.285" y1="134.642" y2="134.642" gradientTransform="matrix(1 0 0 1 -134.64 -134.64)" gradientUnits="userSpaceOnUse"><stop offset="0%" style="stop-color:#000;stop-opacity:0"/><stop offset="50%" style="stop-color:#000;stop-opacity:.30196078431372547"/><stop offset="100%" style="stop-color:#000;stop-opacity:1"/></linearGradient><path style="stroke:#13deb6;stroke-width:0;stroke-dasharray:none;stroke-linecap:butt;stroke-dashoffset:0;stroke-linejoin:miter;stroke-miterlimit:4;fill:url(#SVGID_1);fill-rule:nonzero;opacity:1" stroke-linecap="round" d="M -134.64236 -134.64236 L 134.64235000000002 -134.64236 L 134.64235000000002 134.64235000000002 L -134.64236 134.64235000000002 z" transform="translate(0, 0)" vector-effect="non-scaling-stroke"/></g><g id="NeQEXpd6HF5__Xp4BqxQv" transform="matrix(-0.19 -0.16 6.43 -7.67 851.91 2132.49)"><linearGradient id="SVGID_13" x1="0" x2="269.285" y1="134.642" y2="134.642" gradientTransform="matrix(1 0 0 1 -134.64 -134.64)" gradientUnits="userSpaceOnUse"><stop offset="0%" style="stop-color:#000;stop-opacity:0"/><stop offset="50%" style="stop-color:#000;stop-opacity:.30196078431372547"/><stop offset="100%" style="stop-color:#000;stop-opacity:1"/></linearGradient><path style="stroke:#13deb6;stroke-width:0;stroke-dasharray:none;stroke-linecap:butt;stroke-dashoffset:0;stroke-linejoin:miter;stroke-miterlimit:4;fill:url(#SVGID_13);fill-rule:nonzero;opacity:1" stroke-linecap="round" d="M -134.64236 -134.64236 L 134.64235000000002 -134.64236 L 134.64235000000002 134.64235000000002 L -134.64236 134.64235000000002 z" transform="translate(0, 0)" vector-effect="non-scaling-stroke"/></g><g id="31lS9blvs73yQVlY2p-x1" transform="matrix(0.14 0.12 -6.31 7.51 764.33 2106.05)"><linearGradient id="SVGID_14" x1="0" x2="269.285" y1="134.642" y2="134.642" gradientTransform="matrix(1 0 0 1 -134.64 -134.64)" gradientUnits="userSpaceOnUse"><stop offset="0%" style="stop-color:#000;stop-opacity:0"/><stop offset="50%" style="stop-color:#000;stop-opacity:.30196078431372547"/><stop offset="100%" style="stop-color:#000;stop-opacity:1"/></linearGradient><path style="stroke:#13deb6;stroke-width:0;stroke-dasharray:none;stroke-linecap:butt;stroke-dashoffset:0;stroke-linejoin:miter;stroke-miterlimit:4;fill:url(#SVGID_14);fill-rule:nonzero;opacity:1" stroke-linecap="round" d="M -134.64236 -134.64236 L 134.64235000000002 -134.64236 L 134.64235000000002 134.64235000000002 L -134.64236 134.64235000000002 z" transform="translate(0, 0)" vector-effect="non-scaling-stroke"/></g><g id="kxn0T76FQg9TsDN4a0o5h"><path style="stroke:#81eed0;stroke-width:0;stroke-dasharray:none;stroke-linecap:butt;stroke-dashoffset:0;stroke-linejoin:miter;stroke-miterlimit:4;fill:#81eed0;fill-rule:nonzero;opacity:1" stroke-linecap="round" d="M -99.07121 -99.07121 L 99.07120000000002 -99.07121 L 99.07120000000002 99.07120000000002 L -99.07121 99.07120000000002 z" transform="matrix(-0.29 -0.24 8.75 -10.43 793.8 2146.55) translate(0, 0)" vector-effect="non-scaling-stroke"/></g><g id="hAMuluWJBR7pIvba9xYTN" transform="matrix(-0.22 0.26 -3.52 -2.95 1522.48 381.04)"><linearGradient id="SVGID_2" x1="0" x2="269.285" y1="134.642" y2="134.642" gradientTransform="matrix(1 0 0 1 -134.64 -134.64)" gradientUnits="userSpaceOnUse"><stop offset="0%" style="stop-color:#000;stop-opacity:0"/><stop offset="50%" style="stop-color:#000;stop-opacity:.30196078431372547"/><stop offset="100%" style="stop-color:#000;stop-opacity:1"/></linearGradient><path style="stroke:#13deb6;stroke-width:0;stroke-dasharray:none;stroke-linecap:butt;stroke-dashoffset:0;stroke-linejoin:miter;stroke-miterlimit:4;fill:url(#SVGID_2);fill-rule:nonzero;opacity:1" stroke-linecap="round" d="M -134.64236 -134.64236 L 134.64235000000002 -134.64236 L 134.64235000000002 134.64235000000002 L -134.64236 134.64235000000002 z" transform="translate(0, 0)" vector-effect="non-scaling-stroke"/></g><g id="P7fD0691Qd9XBX_Z_04-T"><path style="stroke:#13deb6;stroke-width:0;stroke-dasharray:none;stroke-linecap:butt;stroke-dashoffset:0;stroke-linejoin:miter;stroke-miterlimit:4;fill:#cbf0e9;fill-rule:nonzero;opacity:1" stroke-linecap="round" d="M -134.64236 -134.64236 L 134.64235000000002 -134.64236 L 134.64235000000002 134.64235000000002 L -134.64236 134.64235000000002 z" transform="matrix(2.33 -2.78 7.97 6.69 1185.54 759.01) translate(0, 0)" vector-effect="non-scaling-stroke"/></g><g id="uYJVMUt4jcdAOvlbnXcpM" transform="matrix(-0.12 0.14 -7.52 -6.31 988.21 834.79)"><linearGradient id="SVGID_4" x1="0" x2="269.285" y1="134.642" y2="134.642" gradientTransform="matrix(1 0 0 1 -134.64 -134.64)" gradientUnits="userSpaceOnUse"><stop offset="0%" style="stop-color:#000;stop-opacity:0"/><stop offset="50%" style="stop-color:#000;stop-opacity:.30196078431372547"/><stop offset="100%" style="stop-color:#000;stop-opacity:1"/></linearGradient><path style="stroke:#13deb6;stroke-width:0;stroke-dasharray:none;stroke-linecap:butt;stroke-dashoffset:0;stroke-linejoin:miter;stroke-miterlimit:4;fill:url(#SVGID_4);fill-rule:nonzero;opacity:1" stroke-linecap="round" d="M -134.64236 -134.64236 L 134.64235000000002 -134.64236 L 134.64235000000002 134.64235000000002 L -134.64236 134.64235000000002 z" transform="translate(0, 0)" vector-effect="non-scaling-stroke"/></g><g id="X2qSUZujIwvMhub_VSHYh" transform="matrix(0.16 -0.19 7.67 6.43 961.77 922.37)"><linearGradient id="SVGID_3" x1="0" x2="269.285" y1="134.642" y2="134.642" gradientTransform="matrix(1 0 0 1 -134.64 -134.64)" gradientUnits="userSpaceOnUse"><stop offset="0%" style="stop-color:#000;stop-opacity:0"/><stop offset="50%" style="stop-color:#000;stop-opacity:.30196078431372547"/><stop offset="100%" style="stop-color:#000;stop-opacity:1"/></linearGradient><path style="stroke:#13deb6;stroke-width:0;stroke-dasharray:none;stroke-linecap:butt;stroke-dashoffset:0;stroke-linejoin:miter;stroke-miterlimit:4;fill:url(#SVGID_3);fill-rule:nonzero;opacity:1" stroke-linecap="round" d="M -134.64236 -134.64236 L 134.64235000000002 -134.64236 L 134.64235000000002 134.64235000000002 L -134.64236 134.64235000000002 z" transform="translate(0, 0)" vector-effect="non-scaling-stroke"/></g><g id="sB-FAoq48PnlUNWB4MGlg"><path style="stroke:#81eed0;stroke-width:0;stroke-dasharray:none;stroke-linecap:butt;stroke-dashoffset:0;stroke-linejoin:miter;stroke-miterlimit:4;fill:#04a0b9;fill-rule:nonzero;opacity:1" stroke-linecap="round" d="M -99.07121 -99.07121 L 99.07120000000002 -99.07121 L 99.07120000000002 99.07120000000002 L -99.07121 99.07120000000002 z" transform="matrix(0.24 -0.29 10.42 8.75 947.71 864.26) translate(0, 0)" vector-effect="non-scaling-stroke"/></g><g id="b-5RkPsP9Hts9Qitzxo2G"><path style="stroke:#955e9c;stroke-width:0;stroke-dasharray:none;stroke-linecap:butt;stroke-dashoffset:0;stroke-linejoin:miter;stroke-miterlimit:4;fill:#e1e243;fill-rule:nonzero;opacity:1" stroke-linecap="round" d="M -99.07121 -99.07121 L 99.07120000000002 -99.07121 L 99.07120000000002 99.07120000000002 L -99.07121 99.07120000000002 z" transform="matrix(10.19 -12.14 0.77 0.64 887.45 1680.19) translate(0, 0)" vector-effect="non-scaling-stroke"/></g><g id="5wBQoM_yQwqTlgJisZrW9"><path style="stroke:#d1d40e;stroke-width:10;stroke-dasharray:none;stroke-linecap:butt;stroke-dashoffset:0;stroke-linejoin:miter;stroke-miterlimit:4;fill:#dadd06;fill-rule:nonzero;opacity:1" stroke-linecap="round" d="M -99.07121 -99.07121 L 99.07120000000002 -99.07121 L 99.07120000000002 99.07120000000002 L -99.07121 99.07120000000002 z" transform="matrix(10.53 -12.55 0.77 0.64 934.89 1502.98) translate(0, 0)" vector-effect="non-scaling-stroke"/></g><g id="Q1hvOaNSx9R7RZzpdoc6x"><path style="stroke:#a1372a;stroke-width:0;stroke-dasharray:none;stroke-linecap:butt;stroke-dashoffset:0;stroke-linejoin:miter;stroke-miterlimit:4;fill:#0fd4dc;fill-rule:nonzero;opacity:1" stroke-linecap="round" d="M -99.07121 -99.07121 L 99.07120000000002 -99.07121 L 99.07120000000002 99.07120000000002 L -99.07121 99.07120000000002 z" transform="matrix(4.44 -5.29 1.84 1.54 1423.86 422.13) translate(0, 0)" vector-effect="non-scaling-stroke"/></g><g id="8UiBNiDj88RLMBeOrSdxX" transform="matrix(-0.22 0.26 -3.67 -3.08 1559.27 2496.66)"><linearGradient id="SVGID_16" x1="0" x2="269.285" y1="134.642" y2="134.642" gradientTransform="matrix(1 0 0 1 -134.64 -134.64)" gradientUnits="userSpaceOnUse"><stop offset="0%" style="stop-color:#000;stop-opacity:0"/><stop offset="50%" style="stop-color:#000;stop-opacity:.2"/><stop offset="100%" style="stop-color:#000;stop-opacity:1"/></linearGradient><path style="stroke:#13deb6;stroke-width:0;stroke-dasharray:none;stroke-linecap:butt;stroke-dashoffset:0;stroke-linejoin:miter;stroke-miterlimit:4;fill:url(#SVGID_16);fill-rule:nonzero;opacity:1" stroke-linecap="round" d="M -134.64236 -134.64236 L 134.64235000000002 -134.64236 L 134.64235000000002 134.64235000000002 L -134.64236 134.64235000000002 z" transform="translate(0, 0)" vector-effect="non-scaling-stroke"/></g><g id="dpfpkE0xm0vW4WIA9bDoF" transform="matrix(0.22 -0.26 3.67 3.08 464.74 3797.52)"><linearGradient id="SVGID_18" x1="0" x2="269.285" y1="134.642" y2="134.642" gradientTransform="matrix(1 0 0 1 -134.64 -134.64)" gradientUnits="userSpaceOnUse"><stop offset="0%" style="stop-color:#000;stop-opacity:0"/><stop offset="50%" style="stop-color:#000;stop-opacity:.2"/><stop offset="100%" style="stop-color:#000;stop-opacity:1"/></linearGradient><path style="stroke:#13deb6;stroke-width:0;stroke-dasharray:none;stroke-linecap:butt;stroke-dashoffset:0;stroke-linejoin:miter;stroke-miterlimit:4;fill:url(#SVGID_18);fill-rule:nonzero;opacity:1" stroke-linecap="round" d="M -134.64236 -134.64236 L 134.64235000000002 -134.64236 L 134.64235000000002 134.64235000000002 L -134.64236 134.64235000000002 z" transform="translate(0, 0)" vector-effect="non-scaling-stroke"/></g><g id="dpd5Hsndk24uUSVMaIg96" transform="matrix(0.26 0.22 -3.97 4.73 513.8 2725.02)"><linearGradient id="SVGID_20" x1="0" x2="269.285" y1="134.642" y2="134.642" gradientTransform="matrix(1 0 0 1 -134.64 -134.64)" gradientUnits="userSpaceOnUse"><stop offset="0%" style="stop-color:#000;stop-opacity:0"/><stop offset="50%" style="stop-color:#000;stop-opacity:.2"/><stop offset="100%" style="stop-color:#000;stop-opacity:1"/></linearGradient><path style="stroke:#13deb6;stroke-width:0;stroke-dasharray:none;stroke-linecap:butt;stroke-dashoffset:0;stroke-linejoin:miter;stroke-miterlimit:4;fill:url(#SVGID_20);fill-rule:nonzero;opacity:1" stroke-linecap="round" d="M -134.64236 -134.64236 L 134.64235000000002 -134.64236 L 134.64235000000002 134.64235000000002 L -134.64236 134.64235000000002 z" transform="translate(0, 0)" vector-effect="non-scaling-stroke"/></g><g id="1bg89jL5nQYhXTJfCA7ZP"><path style="stroke:#81eed0;stroke-width:0;stroke-dasharray:none;stroke-linecap:butt;stroke-dashoffset:0;stroke-linejoin:miter;stroke-miterlimit:4;fill:#edf34d;fill-rule:nonzero;opacity:1" stroke-linecap="round" d="M -466.59639 -466.59639 L 466.59639999999996 -466.59639 L 466.59639999999996 466.59639999999996 L -466.59639 466.59639999999996 z" transform="matrix(-1.15 1.37 -1.61 -1.35 1272.56 3367.09) translate(0, 0)" vector-effect="non-scaling-stroke"/></g></svg>