<svg xmlns="http://www.w3.org/2000/svg" xmlns:xlink="http://www.w3.org/1999/xlink" width="256" height="256" version="1.1" viewBox="0 0 256 256" xml:space="preserve"><desc>Created with Fabric.js 4.6.0</desc><g id="dSWd_Tc7X1z3Oq2OWM248"><path style="stroke:#97a691;stroke-width:0;stroke-dasharray:none;stroke-linecap:butt;stroke-dashoffset:0;stroke-linejoin:miter;stroke-miterlimit:4;fill:#165e83;fill-rule:nonzero;opacity:1" stroke-linecap="round" d="M 127.95733 0 C 198.58978000000002 0 255.91466 57.32488 255.91466 127.95733 C 255.91466 198.58978000000002 198.58978 255.91466 127.95733 255.91466 C 57.32487999999999 255.91466 0 198.58978 0 127.95733 C 0 57.32487999999999 57.32488 0 127.95733 0 z M 127.93733 27.17733 L 105.93733 64.77733 L 149.93733 64.77733 z M 197.90094 57.68372 L 155.75737999999998 68.71459 L 186.87007999999997 99.82729 z M 227.88733 127.93733 L 190.28733 105.93733 L 190.28733 149.93733 z M 197.90094 198.34094 L 186.87007 156.19737999999998 L 155.75737 187.31007999999997 z M 126.01733 227.74733 L 148.01733000000002 190.14733 L 104.01733000000002 190.14733 z M 27.93733 127.97733 L 65.53733 149.97733 L 65.53733 105.97733 z M 57.60372 198.34094 L 99.74728 187.31007 L 68.63458 156.19737 z M 57.60372 57.71372 L 68.63459 99.85728 L 99.74729 68.74458 z M 77.1594 127.97733 C 77.1594 156.02883 99.92583 178.79525999999998 127.97733 178.79525999999998 C 156.02883 178.79525999999998 178.79525999999998 156.02882999999997 178.79525999999998 127.97733 C 178.79525999999998 99.92582999999999 156.02882999999997 77.1594 127.97733 77.1594 C 99.92582999999999 77.1594 77.1594 99.92583 77.1594 127.97733 z" transform="matrix(0.99 0 0 0.99 127.9 127.9) translate(-127.96, -127.96)" vector-effect="non-scaling-stroke"/></g></svg>